<?xml version="1.0" encoding="utf-8"?>
<!-- Generator: Adobe Illustrator 21.1.0, SVG Export Plug-In . SVG Version: 6.00 Build 0)  -->
<svg version="1.1" xmlns="http://www.w3.org/2000/svg" xmlns:xlink="http://www.w3.org/1999/xlink" x="0px" y="0px" width="583px"
	 height="385.7px" viewBox="0 0 583 385.7" style="enable-background:new 0 0 583 385.7;" xml:space="preserve">
<style type="text/css">
	.st0{clip-path:url(#SVGID_2_);}
	.st1{fill:#273B42;}
	.st2{fill:#C0E5FC;}
	.st3{fill:#FBB040;}
	.st4{fill:#24373D;}
	.st5{fill:#141E20;}
	.st6{fill:#14373D;}
	.st7{clip-path:url(#SVGID_2_);fill:url(#SVGID_3_);}
	.st8{fill:#02355E;}
	.st9{fill:#02355E;stroke:#02355E;stroke-width:0.25;stroke-miterlimit:10;}
	.st10{fill:#ED8B00;}
	.st11{fill:#01AFBD;}
	.st12{fill:#05CED3;}
	.st13{fill:#FFFFFF;}
	.st14{fill:#EFBC73;}
	.st15{clip-path:url(#SVGID_2_);fill:#05CED3;}
	.st16{fill:none;stroke:#02355E;stroke-miterlimit:10;}
	.st17{clip-path:url(#SVGID_2_);fill:#02355E;}
	.st18{clip-path:url(#SVGID_2_);fill:#ED8B00;}
	.st19{fill:#005EB8;}
	.st20{fill:#E2A18D;}
	.st21{fill:#0D3EA0;}
	.st22{clip-path:url(#SVGID_2_);fill:url(#SVGID_4_);}
	.st23{clip-path:url(#SVGID_2_);fill:url(#SVGID_5_);}
	.st24{fill:#E0AA63;}
	.st25{fill:#F7F1EB;}
</style>
<g id="design_1_">
</g>
<g id="Layer_2">
	<g>
		<defs>
			<rect id="SVGID_1_" x="-1" y="0.7" width="584.7" height="386.7"/>
		</defs>
		<clipPath id="SVGID_2_">
			<use xlink:href="#SVGID_1_"  style="overflow:visible;"/>
		</clipPath>
		<g class="st0">
			<path class="st1" d="M482.6,98.9H230.6c-3.5,0-6.3,2.9-6.3,6.3v168h264.7v-168C488.9,101.8,486.1,98.9,482.6,98.9z"/>
			<rect x="236" y="110.4" class="st2" width="241.4" height="155.1"/>
			<rect x="236" y="110.4" class="st3" width="241.4" height="17.7"/>
			<polygon class="st4" points="517.3,288.9 195.4,288.9 179.5,283.1 533.2,283.1 			"/>
			<path class="st5" d="M358.8,104.9c0,1.4-1.1,2.4-2.4,2.4s-2.4-1.1-2.4-2.4c0-1.4,1.1-2.4,2.4-2.4
				C357.7,102.5,358.8,103.5,358.8,104.9z"/>
			<rect x="327.6" y="273.3" class="st6" width="57.3" height="5.8"/>
			<path class="st5" d="M380.4,273.3v2.1c0,1.4-1.2,2.7-2.7,2.7h-42.9c-1.4,0-2.7-1.2-2.7-2.7v-2.1H179.5v9.9h353.7v-9.9H380.4z"/>
		</g>
		
			<radialGradient id="SVGID_3_" cx="282.2836" cy="196.6062" r="1.0003" gradientTransform="matrix(0 36.94 263.0075 0 -51352.582 -10142.6436)" gradientUnits="userSpaceOnUse">
			<stop  offset="0" style="stop-color:#00366A"/>
			<stop  offset="1" style="stop-color:#005EB8;stop-opacity:0"/>
		</radialGradient>
		<rect x="93.3" y="285.1" class="st7" width="526" height="73.9"/>
		<g class="st0">
			<path class="st8" d="M374.7,94.1c0.1,0,0.1,0,0.2-0.1c0.2-0.1,0.3-0.3,0.2-0.5c-0.1-0.1-0.1-0.3-0.2-0.3
				c-0.6-0.9-1.6-1.6-2.7-1.9s-2.3,0-3.2,0.6c-0.2,0.1-0.3,0.3-0.1,0.5c0.1,0.2,0.3,0.3,0.5,0.1c0.8-0.5,1.7-0.7,2.6-0.5
				c0.9,0.2,1.7,0.8,2.2,1.5c0.1,0.1,0.1,0.2,0.2,0.3C374.4,94,374.5,94.1,374.7,94.1z"/>
			<path class="st8" d="M378.2,91.4c0.1,0,0.2,0,0.2-0.1c0.2-0.1,0.3-0.3,0.1-0.5c-1.3-2-3.2-3.2-5.5-3.7c-2.2-0.5-4.6-0.1-6.5,1.2
				c-0.2,0.1-0.3,0.3-0.1,0.5c0.1,0.2,0.3,0.3,0.5,0.1c1.8-1.1,3.8-1.5,6-1.1c2,0.4,3.8,1.7,4.9,3.4C377.9,91.4,378,91.4,378.2,91.4
				z"/>
			<path class="st8" d="M383.7,87.8c0.1,0,0.2,0,0.2-0.1c0.2-0.1,0.3-0.3,0.1-0.5c-2.2-3.4-5.6-5.8-9.6-6.6s-8.1-0.1-11.5,2.1
				c-0.2,0.1-0.3,0.3-0.1,0.5c0.1,0.2,0.3,0.3,0.5,0.1c3.2-2.1,7.2-2.8,10.9-2c3.7,0.9,7,3.1,9.1,6.3
				C383.4,87.8,383.6,87.8,383.7,87.8z"/>
			<path class="st8" d="M389.2,84.2c0.1,0,0.2,0,0.2-0.1c0.2-0.1,0.3-0.3,0.1-0.5c-3.2-4.9-8-8.3-13.7-9.5c-5.7-1.2-11.6-0.2-16.4,3
				c-0.2,0.1-0.3,0.3-0.1,0.5c0.1,0.2,0.3,0.3,0.5,0.1c4.8-3.1,10.4-4.1,15.8-2.9c5.5,1.2,10.2,4.4,13.3,9.2
				C389,84.2,389.2,84.2,389.2,84.2z"/>
		</g>
		<g class="st0">
			<g>
				<polygon class="st8" points="316,77 321.2,100.7 299.6,110.3 313,96.1 				"/>
				<path class="st9" d="M339.6,177c6.6,0,13.2-1.4,19.3-4.1c0.2-0.1,0.2-0.3,0.2-0.3c-0.1-0.2-0.3-0.2-0.3-0.2
					c-6.1,2.7-12.7,4.1-19.1,4.1c-13.9,0-27.5-6.2-36.6-17.6c-10.7-13.6-13-32.6-5.6-48.5c0.1-0.2,0-0.3-0.2-0.3
					c-0.2-0.1-0.3,0-0.3,0.2c-3.7,7.8-5,16.6-4.1,25.2c1,8.8,4.3,17,9.8,23.9c6.4,8.1,15.6,14,25.7,16.4
					C332.1,176.6,335.8,177,339.6,177z"/>
			</g>
		</g>
		<g class="st0">
			<g>
				<polygon class="st8" points="240.4,169.3 239.5,192.9 263,197.9 246.6,186.8 				"/>
				<path class="st8" d="M372.9,204.2c5.4-7.5,9.1-16.1,11-25.2c0-0.2-0.1-0.4-0.3-0.4c-0.2,0-0.4,0.1-0.4,0.3
					c-1.9,9.2-5.6,17.6-10.8,25C360.9,219.6,343,230,322.6,231c-24.2,1.2-47.6-11.7-59.6-32.8c-0.1-0.2-0.3-0.3-0.5-0.2
					c-0.2,0.1-0.3,0.3-0.2,0.5c6,10.5,14.7,19.2,25.4,25c10.7,6,22.8,8.8,35,8.2c14.4-0.8,28.5-6.4,39.5-15.9
					C366.2,212.4,369.8,208.4,372.9,204.2z"/>
			</g>
		</g>
		<g class="st0">
			<path class="st10" d="M390.6,181.5l-9.7-2.5c1.7-6.6,2.1-13.4,1.1-20.1c-0.8-5.2-2.3-10.3-4.6-15.1l9-4.3
				c2.7,5.7,4.6,11.8,5.5,18.1C393.2,165.5,392.6,173.6,390.6,181.5z"/>
			<path class="st8" d="M381.3,155.5L381.3,155.5l10.1-1.3c0.3,0,0.4-0.3,0.3-0.4c0-0.3-0.3-0.4-0.4-0.3l-10,1.3
				c-0.3,0-0.4,0.3-0.3,0.4C380.9,155.3,381.1,155.5,381.3,155.5z"/>
			<path class="st8" d="M382.1,159.6L382.1,159.6l10.1-0.5c0.3,0,0.4-0.2,0.4-0.4c0-0.3-0.2-0.4-0.4-0.4l-10,0.5
				c-0.3,0-0.4,0.2-0.4,0.4C381.7,159.4,381.8,159.6,382.1,159.6z"/>
			<path class="st8" d="M392.4,163.4c0.3,0,0.4-0.2,0.4-0.4c0-0.3-0.2-0.4-0.4-0.4l-10-0.2c-0.3,0-0.4,0.2-0.4,0.4
				c0,0.3,0.2,0.4,0.4,0.4L392.4,163.4L392.4,163.4z"/>
			<rect x="367" y="165.7" class="st11" width="65.9" height="99.8"/>
			<rect x="347.4" y="165.7" class="st12" width="65.9" height="99.8"/>
			
				<rect x="371" y="98.1" transform="matrix(0.9891 -0.1471 0.1471 0.9891 -13.8592 60.049)" class="st11" width="56.1" height="51.2"/>
			
				<rect x="343.3" y="101.5" transform="matrix(0.9891 -0.1471 0.1471 0.9891 -14.6071 56.7334)" class="st12" width="65.9" height="51.2"/>
			<path class="st8" d="M389.7,130.8l-41.6,6.2c-5.4,0.8-10.4-2.9-11.2-8.3l0,0c-0.8-5.4,2.9-10.5,8.3-11.2l41.6-6.2
				c5.4-0.8,10.4,2.9,11.2,8.3l0,0C398.9,124.9,395.2,130,389.7,130.8z"/>
			<path class="st13" d="M332,129.4c-0.4-2.7,0.3-5.5,1.9-7.7c1.6-2.2,4-3.7,6.7-4.1l41.6-6.2c5.6-0.9,10.9,3.1,11.7,8.7
				c0.4,2.7-0.3,5.5-1.9,7.7s-4,3.7-6.7,4.1l0,0l-41.6,6.2c-0.5,0.1-1,0.1-1.5,0.1C337.2,138.2,332.7,134.5,332,129.4z M385.1,131.1
				c2.5-0.3,4.7-1.7,6.2-3.7c1.5-2,2.1-4.5,1.8-7.1c-0.8-5.2-5.6-8.8-10.7-8l-41.7,6.3c-2.5,0.3-4.7,1.7-6.2,3.7
				c-1.5,2-2.1,4.5-1.8,7.1c0.8,5.2,5.6,8.8,10.7,8L385.1,131.1L385.1,131.1z"/>
			<path class="st13" d="M347.3,133.3h-0.2c-0.3,0-0.4-0.2-0.4-0.4c0-0.3,0.2-0.4,0.4-0.4h0.2c0.1,0,0.2,0,0.3,0
				c0.3,0,0.4,0.2,0.4,0.4c0,0.3-0.2,0.4-0.4,0.4C347.5,133.3,347.4,133.3,347.3,133.3L347.3,133.3z M345,132.9
				c-0.2-0.1-0.3-0.1-0.4-0.2c-0.2-0.1-0.3-0.3-0.2-0.5c0.1-0.2,0.3-0.3,0.5-0.2c0.1,0.1,0.3,0.1,0.3,0.2c0.3,0.1,0.3,0.3,0.3,0.5
				C345.4,132.9,345.3,132.9,345,132.9C345.2,132.9,345.1,132.9,345,132.9z M349.2,132.6c-0.1-0.2,0-0.4,0.3-0.5
				c0.1-0.1,0.3-0.1,0.3-0.2c0.2-0.1,0.4,0,0.6,0.2c0.1,0.2,0,0.4-0.2,0.6c-0.2,0.1-0.3,0.1-0.4,0.2c-0.1,0-0.1,0-0.2,0
				C349.4,132.9,349.2,132.8,349.2,132.6z M342.9,131.4c-0.1-0.1-0.2-0.2-0.3-0.3c-0.2-0.2-0.2-0.4,0.1-0.6c0.2-0.2,0.4-0.2,0.6,0.1
				c0.1,0.1,0.2,0.2,0.3,0.3c0.2,0.2,0.2,0.4,0,0.6c-0.1,0.1-0.2,0.1-0.3,0.1C343.1,131.6,343,131.5,342.9,131.4z M351.2,131.4
				c-0.2-0.2-0.2-0.4,0-0.6c0.1-0.1,0.2-0.2,0.3-0.3c0.2-0.2,0.4-0.2,0.6-0.1c0.2,0.2,0.2,0.4,0.1,0.6c-0.1,0.1-0.2,0.3-0.3,0.3
				c-0.1,0.1-0.2,0.2-0.3,0.2C351.4,131.5,351.3,131.4,351.2,131.4z M341.5,129.3c-0.1-0.2-0.1-0.3-0.2-0.4
				c-0.1-0.3,0.1-0.4,0.3-0.5c0.3-0.1,0.4,0.1,0.5,0.3c0,0.1,0.1,0.3,0.1,0.3c0.1,0.3,0,0.4-0.3,0.5c-0.1,0-0.1,0-0.2,0
				C341.8,129.5,341.6,129.4,341.5,129.3z M352.6,129.4c-0.3-0.1-0.3-0.3-0.3-0.5c0-0.1,0.1-0.3,0.1-0.3c0.1-0.3,0.3-0.3,0.5-0.3
				c0.3,0.1,0.3,0.3,0.3,0.5c0,0.2-0.1,0.3-0.2,0.4C352.9,129.4,352.8,129.5,352.6,129.4C352.7,129.4,352.7,129.4,352.6,129.4z
				 M341.5,127.1c-0.3,0-0.4-0.2-0.4-0.4c0-0.2,0-0.3,0-0.4c0-0.3,0.3-0.4,0.4-0.3c0.3,0,0.4,0.3,0.3,0.4c0,0.1,0,0.3,0,0.3
				C341.9,127,341.8,127.1,341.5,127.1L341.5,127.1z M352.7,126.6c0-0.1,0-0.3-0.1-0.3l0.4-0.1h0.4c0,0.2,0,0.3,0.1,0.4
				c0,0.3-0.2,0.4-0.3,0.4l0,0C352.9,127.1,352.7,126.9,352.7,126.6z M342,124.8c-0.2-0.1-0.3-0.3-0.2-0.6c0.1-0.1,0.2-0.3,0.2-0.3
				c0.1-0.2,0.3-0.3,0.6-0.2c0.2,0.1,0.3,0.3,0.2,0.6c-0.1,0.1-0.1,0.3-0.2,0.3c-0.1,0.2-0.3,0.3-0.3,0.3
				C342.1,124.8,342,124.8,342,124.8z M352,124.5c-0.1-0.1-0.1-0.3-0.2-0.3c-0.1-0.2-0.1-0.4,0.1-0.6c0.2-0.1,0.4-0.1,0.6,0.1
				c0.1,0.1,0.2,0.3,0.3,0.3c0.1,0.2,0,0.4-0.2,0.6c-0.1,0-0.2,0.1-0.2,0.1C352.3,124.8,352.1,124.7,352,124.5z M343.4,122.8
				c-0.2-0.2-0.1-0.4,0.1-0.6c0.1-0.1,0.3-0.2,0.3-0.3c0.2-0.2,0.4-0.1,0.6,0.1c0.2,0.2,0.1,0.4-0.1,0.6c-0.1,0.1-0.2,0.2-0.3,0.3
				c-0.1,0.1-0.2,0.1-0.3,0.1C343.6,123,343.5,123,343.4,122.8z M350.6,122.8c-0.1-0.1-0.2-0.2-0.3-0.3s-0.3-0.4-0.1-0.6
				c0.1-0.2,0.4-0.3,0.6-0.1c0.1,0.1,0.3,0.2,0.3,0.3c0.2,0.2,0.3,0.4,0.1,0.6c-0.1,0.1-0.2,0.2-0.3,0.2
				C350.7,122.9,350.6,122.9,350.6,122.8z M345.4,121.6c-0.1-0.3,0.1-0.4,0.3-0.5c0.2,0,0.3-0.1,0.4-0.1c0.3-0.1,0.4,0.1,0.5,0.3
				c0,0.3-0.1,0.4-0.3,0.5c-0.1,0-0.3,0.1-0.3,0.1h-0.1C345.7,121.9,345.5,121.8,345.4,121.6z M348.6,121.9c-0.1,0-0.3-0.1-0.3-0.1
				c-0.3,0-0.3-0.3-0.3-0.5c0-0.3,0.3-0.3,0.5-0.3c0.2,0,0.3,0.1,0.4,0.1c0.3,0.1,0.3,0.3,0.3,0.5c-0.1,0.2-0.3,0.3-0.4,0.3
				C348.6,121.9,348.6,121.9,348.6,121.9z"/>
			<path class="st13" d="M382.8,128h-0.2c-0.3,0-0.4-0.2-0.4-0.4s0.2-0.4,0.4-0.4h0.2c0.1,0,0.2,0,0.3,0c0.3,0,0.4,0.2,0.4,0.4
				s-0.2,0.4-0.4,0.4C383,128,382.9,128,382.8,128L382.8,128z M380.5,127.6c-0.2-0.1-0.3-0.1-0.4-0.2c-0.2-0.1-0.3-0.3-0.2-0.5
				s0.3-0.3,0.5-0.2c0.1,0.1,0.3,0.1,0.3,0.2c0.3,0.1,0.3,0.3,0.3,0.5C381,127.6,380.8,127.7,380.5,127.6
				C380.6,127.6,380.6,127.6,380.5,127.6z M384.6,127.3c-0.1-0.2,0-0.4,0.3-0.5c0.1-0.1,0.3-0.1,0.3-0.2c0.2-0.1,0.4,0,0.6,0.2
				c0.1,0.2,0,0.4-0.2,0.6c-0.2,0.1-0.3,0.1-0.4,0.2c-0.1,0-0.1,0-0.2,0C384.9,127.6,384.7,127.5,384.6,127.3z M378.4,126.1
				c-0.1-0.1-0.2-0.2-0.3-0.3c-0.2-0.2-0.2-0.4,0.1-0.6c0.2-0.2,0.4-0.2,0.6,0.1c0.1,0.1,0.2,0.2,0.3,0.3c0.2,0.2,0.2,0.4,0,0.6
				c-0.1,0.1-0.2,0.1-0.3,0.1C378.6,126.3,378.5,126.2,378.4,126.1z M386.7,126.1c-0.2-0.2-0.2-0.4,0-0.6c0.1-0.1,0.2-0.2,0.3-0.3
				c0.2-0.2,0.4-0.2,0.6-0.1c0.2,0.2,0.2,0.4,0.1,0.6c-0.1,0.1-0.2,0.3-0.3,0.3c-0.1,0.1-0.2,0.2-0.3,0.2
				C386.9,126.2,386.8,126.2,386.7,126.1z M377.1,124c-0.1-0.2-0.1-0.3-0.2-0.4c-0.1-0.3,0.1-0.4,0.3-0.5c0.3-0.1,0.4,0.1,0.5,0.3
				c0,0.1,0.1,0.3,0.1,0.3c0.1,0.3,0,0.4-0.3,0.5c-0.1,0-0.1,0-0.2,0C377.2,124.2,377.1,124.2,377.1,124z M388.1,124.2
				c-0.3-0.1-0.3-0.3-0.3-0.5c0-0.1,0.1-0.3,0.1-0.3c0.1-0.3,0.3-0.3,0.5-0.3c0.3,0.1,0.3,0.3,0.3,0.5c0,0.2-0.1,0.3-0.2,0.4
				C388.5,124.2,388.3,124.2,388.1,124.2C388.2,124.2,388.2,124.2,388.1,124.2z M377.1,121.9c-0.3,0-0.4-0.2-0.4-0.4
				c0-0.2,0-0.3,0-0.4c0-0.3,0.3-0.4,0.4-0.3c0.3,0,0.4,0.3,0.3,0.4c0,0.1,0,0.3,0,0.3C377.5,121.7,377.2,121.9,377.1,121.9
				L377.1,121.9z M388.1,121.4c0-0.1,0-0.3,0-0.3l0,0c0-0.3,0.1-0.4,0.3-0.4c0.3,0,0.4,0.2,0.5,0.3c0,0.2,0,0.3,0.1,0.4
				c0,0.3-0.2,0.4-0.3,0.4l0,0C388.4,121.8,388.2,121.6,388.1,121.4z M377.5,119.6c-0.2-0.1-0.3-0.3-0.2-0.6
				c0.1-0.1,0.2-0.3,0.2-0.3c0.1-0.2,0.3-0.3,0.6-0.2c0.2,0.1,0.3,0.3,0.2,0.6c-0.1,0.1-0.1,0.3-0.2,0.3c-0.1,0.2-0.3,0.3-0.3,0.3
				C377.6,119.6,377.6,119.6,377.5,119.6z M387.5,119.2c-0.1-0.1-0.1-0.3-0.2-0.3c-0.1-0.2-0.1-0.4,0.1-0.6c0.2-0.1,0.4-0.1,0.6,0.1
				c0.1,0.1,0.2,0.3,0.3,0.3c0.1,0.2,0,0.4-0.2,0.6c-0.1,0-0.2,0.1-0.2,0.1C387.7,119.5,387.6,119.4,387.5,119.2z M378.8,117.5
				c-0.2-0.2-0.1-0.4,0.1-0.6c0.1-0.1,0.3-0.2,0.3-0.3c0.2-0.2,0.4-0.1,0.6,0.1c0.2,0.2,0.1,0.4-0.1,0.6c-0.1,0.1-0.2,0.2-0.3,0.3
				c-0.1,0.1-0.2,0.1-0.3,0.1C379.1,117.7,378.9,117.7,378.8,117.5z M386.1,117.5c-0.1-0.1-0.2-0.2-0.3-0.3
				c-0.2-0.1-0.3-0.4-0.1-0.6c0.1-0.2,0.4-0.3,0.6-0.1c0.1,0.1,0.3,0.2,0.3,0.3c0.2,0.2,0.3,0.4,0.1,0.6c-0.1,0.1-0.2,0.2-0.3,0.2
				C386.3,117.6,386.2,117.6,386.1,117.5z M381,116.3c-0.1-0.3,0.1-0.4,0.3-0.5c0.2,0,0.3-0.1,0.4-0.1c0.3,0,0.4,0.1,0.5,0.3
				c0,0.3-0.1,0.4-0.3,0.5c-0.1,0-0.3,0.1-0.3,0.1h-0.1C381.1,116.7,381,116.5,381,116.3z M384,116.6c-0.1,0-0.3-0.1-0.3-0.1
				c-0.3,0-0.3-0.3-0.3-0.5c0-0.3,0.3-0.3,0.5-0.3c0.2,0,0.3,0.1,0.4,0.1c0.3,0.1,0.3,0.3,0.3,0.5c-0.1,0.2-0.3,0.3-0.4,0.3
				C384.1,116.6,384.1,116.6,384,116.6z"/>
		</g>
		<g class="st0">
			<rect x="480.1" y="283.1" class="st3" width="70.2" height="52.1"/>
			<path class="st14" d="M532.9,332.4c0.2,0,0.3-0.2,0.3-0.3v-46c0-0.2-0.2-0.3-0.3-0.3c-0.2,0-0.3,0.2-0.3,0.3v46
				C532.6,332.3,532.8,332.4,532.9,332.4z"/>
			<path class="st14" d="M501.6,332.4c0.2,0,0.3-0.2,0.3-0.3v-30.6c0-0.2-0.2-0.3-0.3-0.3c-0.2,0-0.3,0.2-0.3,0.3v30.6
				C501.3,332.3,501.4,332.4,501.6,332.4z"/>
			<path class="st10" d="M507.8,283.1h-6.7h-6.5l0.1,16.2h0.7l1.3-2.1h0.6v2.1h0.8l1.3-2.1h1v2.1h0.8l0,0l0,0c0.1,0,0.2,0,0.2,0
				l0.9-2.1h0.8v2.1h1l1.2-2.1h0.8v2.1h1l0.9-2.1C508,297.1,507.7,286.8,507.8,283.1z"/>
		</g>
		<path class="st15" d="M424.6,203.9L424.6,203.9c-2.2,0-4-1.8-4-4v-23.4c0-2.2,1.8-4,4-4l0,0c2.2,0,4,1.8,4,4v23.4
			C428.6,202.1,426.8,203.9,424.6,203.9z"/>
		<g class="st0">
			<polygon class="st8" points="490.9,78 496.3,101.9 520.1,101.4 501.8,94.1 			"/>
			<path class="st8" d="M523.3,127.8c-0.4,4.2-1.2,8.3-2.3,12.4c-3.4,11.8-10,22.3-19,30.5c-10.8,9.6-24.7,15.5-39.2,16.6
				c-14.5,1-29.2-2.8-41.4-10.9c-0.1-0.1-0.3-0.3-0.1-0.6c0.1-0.1,0.3-0.3,0.6-0.1c24.8,16.6,57.6,14.3,79.6-5.6
				c18-16.2,25.5-41.8,19.2-65.4c0-0.2,0.1-0.4,0.3-0.5c0.2,0,0.4,0.1,0.5,0.3C523.4,112.2,524.1,120.1,523.3,127.8z"/>
		</g>
		<g class="st0">
			<rect x="193" y="120.9" class="st13" width="75.2" height="66.5"/>
			<g>
				<g>
					<rect x="200.6" y="149.4" class="st8" width="2.8" height="30.2"/>
					<rect x="231.9" y="149.4" class="st8" width="2.8" height="30.2"/>
					<rect x="221.4" y="149.4" class="st8" width="2.8" height="30.2"/>
					<rect x="229.1" y="149.4" class="st8" width="1.7" height="30.2"/>
					<rect x="225.6" y="149.4" class="st8" width="1.7" height="30.2"/>
					<rect x="214.2" y="149.4" class="st8" width="1.7" height="30.2"/>
					<rect x="204.9" y="149.4" class="st8" width="1.4" height="30.2"/>
					<rect x="207.2" y="149.4" class="st8" width="1.4" height="30.2"/>
					<rect x="209.8" y="149.4" class="st8" width="2.4" height="30.2"/>
					<rect x="217.4" y="149.4" class="st8" width="2.4" height="30.2"/>
				</g>
				<g>
					<rect x="257.9" y="149.4" class="st8" width="2.8" height="30.2"/>
					<rect x="247.5" y="149.4" class="st8" width="2.8" height="30.2"/>
					<rect x="255.1" y="149.4" class="st8" width="1.7" height="30.2"/>
					<rect x="251.6" y="149.4" class="st8" width="1.7" height="30.2"/>
					<rect x="240.2" y="149.4" class="st8" width="1.7" height="30.2"/>
					<rect x="235.8" y="149.4" class="st8" width="2.4" height="30.2"/>
					<rect x="243.5" y="149.4" class="st8" width="2.4" height="30.2"/>
				</g>
			</g>
			<line class="st16" x1="200.6" y1="135.2" x2="231.9" y2="135.2"/>
			<line class="st16" x1="200.6" y1="141.2" x2="260.8" y2="141.2"/>
		</g>
		<polygon class="st17" points="245.4,165.2 267.7,174.7 263,197.9 259.1,178.7 		"/>
		<path class="st18" d="M268.6,198.3l-7.4,4.9c-1.2,0.8-2.7,0.4-3.6-0.8l0,0c-0.8-1.2-0.4-2.7,0.8-3.6l7.4-4.9
			c1.2-0.8,2.7-0.4,3.6,0.8l0,0C270.1,195.9,269.8,197.4,268.6,198.3z"/>
		<g class="st0">
			<g>
				<polygon class="st11" points="340.3,81.6 305.1,47.9 311.7,37.6 347,71.3 				"/>
			</g>
			<g>
				<polygon class="st8" points="338.8,76.4 309.2,48 312.9,42.3 342.5,70.7 				"/>
			</g>
			<g>
				<g>
					
						<rect x="289.3" y="54.6" transform="matrix(0.6915 -0.7224 0.7224 0.6915 38.3147 247.6504)" class="st12" width="39.6" height="48.7"/>
				</g>
			</g>
			<g>
				
					<rect x="309.5" y="98.8" transform="matrix(0.6915 -0.7224 0.7224 0.6915 22.8873 257.2443)" class="st3" width="6.1" height="6.1"/>
			</g>
			<g>
				
					<rect x="316.1" y="91.9" transform="matrix(0.6915 -0.7224 0.7224 0.6915 29.8259 259.8669)" class="st3" width="6.1" height="6.1"/>
			</g>
			<g>
				
					<rect x="322.6" y="85.1" transform="matrix(0.6915 -0.7224 0.7224 0.6915 36.7665 262.4907)" class="st13" width="6.1" height="6.1"/>
			</g>
			<g>
				
					<rect x="329.2" y="78.3" transform="matrix(0.6915 -0.7224 0.7224 0.6915 43.7062 265.1138)" class="st13" width="6.1" height="6.1"/>
			</g>
			<g>
				
					<rect x="302.8" y="92.4" transform="matrix(0.6915 -0.7224 0.7224 0.6915 25.3819 250.4573)" class="st13" width="6.1" height="6.1"/>
			</g>
			<g>
				
					<rect x="309.4" y="85.6" transform="matrix(0.6915 -0.7224 0.7224 0.6915 32.3838 253.1038)" class="st13" width="6.1" height="6.1"/>
			</g>
			<g>
				
					<rect x="316" y="78.8" transform="matrix(0.6915 -0.7224 0.7224 0.6915 39.3248 255.7277)" class="st13" width="6.1" height="6.1"/>
			</g>
			<g>
				
					<rect x="322.5" y="71.9" transform="matrix(0.6915 -0.7224 0.7224 0.6915 46.2644 258.3509)" class="st13" width="6.1" height="6.1"/>
			</g>
			<g>
				
					<rect x="296.2" y="86.1" transform="matrix(0.6915 -0.7224 0.7224 0.6915 27.9398 243.6941)" class="st13" width="6.1" height="6.1"/>
			</g>
			<g>
				
					<rect x="302.8" y="79.3" transform="matrix(0.6915 -0.7224 0.7224 0.6915 34.8798 246.3175)" class="st13" width="6.1" height="6.1"/>
			</g>
			<g>
				
					<rect x="309.4" y="72.4" transform="matrix(0.6915 -0.7224 0.7224 0.6915 41.8831 248.9647)" class="st13" width="6.1" height="6.1"/>
			</g>
			<g>
				
					<rect x="315.8" y="65.5" transform="matrix(0.6915 -0.7224 0.7224 0.6915 48.8463 251.5252)" class="st13" width="6.1" height="6.1"/>
			</g>
			<g>
				
					<rect x="289.6" y="79.7" transform="matrix(0.6915 -0.7224 0.7224 0.6915 30.4984 236.9313)" class="st13" width="6.1" height="6.1"/>
			</g>
			<g>
				
					<rect x="296.1" y="72.9" transform="matrix(0.6915 -0.7224 0.7224 0.6915 37.439 239.555)" class="st13" width="6.1" height="6.1"/>
			</g>
			<g>
				
					<rect x="302.7" y="65.9" transform="matrix(0.6915 -0.7224 0.7224 0.6915 44.4649 242.1391)" class="st13" width="6.1" height="6.1"/>
			</g>
			<g>
				
					<rect x="309.2" y="59.1" transform="matrix(0.6915 -0.7224 0.7224 0.6915 51.4035 244.7618)" class="st3" width="6.1" height="6.1"/>
			</g>
			<g>
				
					<rect x="281.4" y="70.1" transform="matrix(0.6915 -0.7224 0.7224 0.6915 36.3485 231.3537)" class="st13" width="15.3" height="6.1"/>
			</g>
			<g>
				
					<rect x="296" y="59.6" transform="matrix(0.6915 -0.7224 0.7224 0.6915 46.9605 235.3525)" class="st13" width="6.1" height="6.1"/>
			</g>
			<g>
				
					<rect x="302.6" y="52.8" transform="matrix(0.6915 -0.7224 0.7224 0.6915 53.9628 237.9993)" class="st3" width="6.1" height="6.1"/>
			</g>
		</g>
		<polygon class="st17" points="309.7,75.4 290,88.3 299.6,110.3 299.2,90.5 		"/>
		<path class="st18" d="M302.6,115.1l-8.3-3.2c-1.3-0.5-2-2-1.4-3.3l0,0c0.5-1.3,2-2,3.3-1.4l8.3,3.2c1.3,0.5,2,2,1.4,3.3l0,0
			C305.4,115,303.9,115.6,302.6,115.1z"/>
		<g class="st0">
			<g>
				<g>
					
						<rect x="437.5" y="63.5" transform="matrix(0.3687 -0.9296 0.9296 0.3687 214.7025 505.0803)" class="st13" width="83.4" height="62"/>
				</g>
			</g>
			<path class="st8" d="M505.9,51.9L505.9,51.9c1.9-4.7-0.4-10-5.1-11.8c-4.7-1.9-10,0.4-11.8,5.1l0,0l-9.3-3.7l-4.5,11.1l35.6,14.1
				l4.4-11.2L505.9,51.9z M491.2,46c1.4-3.5,5.2-5.1,8.7-3.7c3.5,1.4,5.1,5.2,3.7,8.7l0,0L491.2,46L491.2,46z"/>
			<path class="st2" d="M468,85.6c1.9-0.8,3.4-2.2,4.2-4.3c1.6-3.9-0.4-8.3-4.3-9.8c-3.9-1.6-8.3,0.4-9.8,4.3c-0.8,2-0.6,4.1,0.2,6
				L468,85.6z M461.2,77c0.8-2.2,3.4-3.3,5.5-2.5c2.2,0.8,3.3,3.4,2.5,5.5c-0.8,2.2-3.4,3.3-5.5,2.5C461.5,81.7,460.3,79.3,461.2,77
				z"/>
			<path class="st8" d="M462.5,85.6c1.9,0.8,3.9,0.7,5.5-0.1l-9.6-3.8C459.2,83.5,460.6,84.9,462.5,85.6z"/>
			<path class="st2" d="M502.1,85.4c-3.9-1.6-8.3,0.4-9.8,4.3c-1.6,3.9,0.4,8.3,4.3,9.8c3.9,1.6,8.3-0.4,9.8-4.3
				C507.9,91.2,506,86.9,502.1,85.4z M497.8,96.5c-2.2-0.8-3.3-3.4-2.5-5.5c0.8-2.2,3.4-3.3,5.5-2.5c2.2,0.8,3.3,3.4,2.5,5.5
				C502.5,96.2,500,97.3,497.8,96.5z"/>
			<path class="st19" d="M503.3,94c-0.8,2.2-3.4,3.3-5.5,2.5c-2.2-0.8-3.3-3.4-2.5-5.5c0.2-0.6,0.5-1,0.9-1.4l-3.2-1.3
				c-0.3,0.5-0.6,0.9-0.8,1.5c-1.6,3.9,0.4,8.3,4.3,9.8c3.9,1.6,8.3-0.4,9.8-4.3c0.2-0.6,0.4-1.1,0.5-1.6l-3.2-1.3
				C503.6,92.8,503.6,93.4,503.3,94z"/>
			<path class="st2" d="M489.2,82.5c-0.8-1.8-2.2-3.2-4.2-4c-2-0.8-4-0.6-5.8,0.1L489.2,82.5z"/>
			<path class="st12" d="M475.2,82.8c-1.6,3.9,0.4,8.3,4.3,9.8c3.9,1.5,8.3-0.4,9.8-4.3c0.8-1.9,0.6-4-0.1-5.7l-10-3.8
				C477.5,79.4,476,80.8,475.2,82.8z M483.8,81.5c2.2,0.8,3.3,3.4,2.5,5.5s-3.4,3.3-5.5,2.5s-3.3-3.4-2.5-5.5
				C479.1,81.7,481.6,80.6,483.8,81.5z"/>
			<g>
				
					<rect x="473.9" y="76" transform="matrix(0.3687 -0.9296 0.9296 0.3687 205.7688 506.1927)" class="st2" width="3.2" height="51.3"/>
				
					<rect x="471.2" y="83" transform="matrix(0.3687 -0.9296 0.9296 0.3687 197.4434 508.0867)" class="st2" width="3.2" height="51.3"/>
				
					<rect x="468.3" y="90.2" transform="matrix(0.3687 -0.9296 0.9296 0.3687 189.0454 509.953)" class="st2" width="3.2" height="51.3"/>
				
					<rect x="454" y="89.5" transform="matrix(0.3687 -0.9296 0.9296 0.3687 200.595 482.6142)" class="st8" width="3.2" height="8.3"/>
				
					<rect x="468" y="85.1" transform="matrix(0.3687 -0.9296 0.9296 0.3687 196.6446 504.3505)" class="st12" width="3.2" height="44.6"/>
				
					<rect x="456.5" y="98.1" transform="matrix(0.3687 -0.9296 0.9296 0.3687 185.9614 496.0016)" class="st19" width="3.2" height="26"/>
			</g>
			<g>
				<path class="st3" d="M469.6,59.8l-2.7,6.9c-0.4,1,0,2.3,1,2.9l-1.1,2.8c0,0.2,0,0.3,0.1,0.4l0.1,0c0.1,0,0.2,0,0.3,0l4.2-1.8
					l6.7,2.7c1.2,0.5,2.5-0.2,3.1-1.3l2.7-6.8c0.5-1.2-0.1-2.5-1.3-3.1l0,0l-9.9-3.9C471.4,58.1,470.1,58.6,469.6,59.8L469.6,59.8z"
					/>
				<g>
					<path class="st13" d="M475.8,67.3l-1.5-0.6l1.5-4.3l1.9,0.8L475.8,67.3z M473.5,68.2c0.1-0.2,0.3-0.5,0.5-0.5
						c0.2-0.1,0.4-0.1,0.8,0c0.3,0.1,0.5,0.3,0.6,0.5c0.1,0.2,0.1,0.4,0,0.7c-0.1,0.2-0.3,0.5-0.5,0.5c-0.2,0.1-0.4,0.1-0.8,0
						c-0.3-0.1-0.5-0.3-0.6-0.5C473.4,68.7,473.3,68.5,473.5,68.2z"/>
				</g>
			</g>
		</g>
		<g class="st0">
			<rect x="378.3" y="269.1" class="st3" width="89.1" height="66"/>
			<path class="st14" d="M445.3,331.7c0.2,0,0.4-0.2,0.4-0.4v-58.4c0-0.2-0.2-0.4-0.4-0.4c-0.2,0-0.4,0.2-0.4,0.4v58.4
				C444.9,331.5,445.1,331.7,445.3,331.7z"/>
			<path class="st14" d="M405.6,331.7c0.2,0,0.4-0.2,0.4-0.4v-38.8c0-0.2-0.2-0.4-0.4-0.4c-0.2,0-0.4,0.2-0.4,0.4v38.8
				C405.2,331.5,405.3,331.7,405.6,331.7z"/>
			<path class="st10" d="M413.5,269.1h-8.5h-8.4l0.1,20.5h0.9l1.7-2.7h0.9v2.7h1l1.6-2.7h1.3v2.7h1l0,0l0,0c0.1,0,0.2,0,0.2,0
				l1.3-2.6h0.9v2.6h1.3l1.4-2.7h1v2.7h1.3l1.2-2.7C413.7,286.9,413.3,273.8,413.5,269.1z"/>
		</g>
		<polygon class="st17" points="502.3,67.3 524.4,76.1 519.4,99.8 515.8,80.2 		"/>
		<path class="st18" d="M517,105.8l7.2-5.1c1.2-0.8,1.5-2.4,0.6-3.5l0,0c-0.8-1.2-2.4-1.5-3.5-0.6l-7.2,5.1
			c-1.2,0.8-1.5,2.4-0.6,3.5l0,0C514.2,106.4,515.8,106.7,517,105.8z"/>
		<g class="st0">
			<g>
				<polygon class="st20" points="61.9,313.3 67,336.1 82.8,336.1 82.8,311.9 				"/>
				<polygon class="st20" points="117.8,310.5 123.5,334.4 141.6,334.4 137.2,310.5 				"/>
				<path class="st8" d="M123.5,333.6l2,19.2h50.2c-6.8-10.5-17.8-14.8-34.2-19.2H123.5z"/>
				<path class="st8" d="M66.8,335.1c0,0.9-6.4,18.1-6.4,18.1h36.5l-14.4-18.1H66.8z"/>
				<path class="st21" d="M79,190c0,0-1,38.8,38.4,135.2h25.7c0,0-24.2-124.3-26.4-139.2L79,190z"/>
				<path class="st21" d="M57.2,194.7c0,0-9.2,57.3,4.2,130.5h23.9c0,0,3.6-112.8,9.6-128.7L57.2,194.7z"/>
				<path class="st8" d="M89.7,245.6L89.7,245.6c-0.2,0-0.4-0.2-0.4-0.4l1.2-18.2c0-0.2,0.2-0.4,0.4-0.4c0.2,0,0.4,0.2,0.4,0.4
					l-1.2,18.2C90.1,245.4,89.9,245.6,89.7,245.6z"/>
			</g>
			<path class="st20" d="M46.8,178.6l0.9,0.4l17.5-24.2l-18-16.1l-8.8,19.5C34.8,166.2,38.7,175.5,46.8,178.6z"/>
			<g>
				<g>
					<path class="st20" d="M119.6,135.3c0,0,9.3,8.6,14.5,3c5.3-5.8,11.6-12.5,14.9-15.6c6.7-6.5,17.5-15,18.7-13.5
						c0.6,0.8-0.5,2.3-4.1,6.1c0.4,0,1.5,0.2,2,1.2c0.7,1.4-0.2,2.2-0.2,2.3c0.1,0,1.6-0.1,2.2,0.7c0.7,0.9,0.5,1.9,0.1,2.7
						c0.3,0,1.7,0.1,2.2,0.9c0.7,1,0.1,2.4-0.6,3.1c-1.5,1.4-5.5,4.9-7.3,7.1c-2.3,2.7-11.5,13.8-17.9,21.7
						c-4,4.9-10.5,7.1-16.7,5.8l-7.4-1.7L119.6,135.3z"/>
					<path class="st8" d="M156.2,130.3c-0.1,0-0.1,0-0.2,0c-0.2-0.1-0.3-0.3-0.2-0.5c0.8-1.8,0.8-3.4,0.8-4.6c0-1.4,0-2.5,1.2-3
						c0.6-0.2,1.4-0.9,2-1.9c0.1-0.2,0-0.4,0-0.5s-0.2-0.2-0.5-0.2l-5.8,1.8c-0.2,0.1-0.4-0.1-0.5-0.3c-0.1-0.2,0.1-0.4,0.3-0.5
						l5.8-1.8c0.5-0.1,1,0,1.4,0.4c0.3,0.4,0.3,0.9,0.1,1.4c-0.7,1.2-1.6,1.9-2.3,2.2c-0.6,0.3-0.7,0.9-0.7,2.3c0,1.3,0,3-0.9,5
						C156.4,130.2,156.3,130.3,156.2,130.3z"/>
					<path class="st8" d="M165.8,128.1c-0.1,0-0.2,0-0.3-0.1c-0.9-0.9-1.2-2.3-0.7-3.6c-0.9,0.6-2.1,0.4-2.8-0.3
						c-0.4-0.4-0.7-1-0.7-1.7c0-0.6,0.2-1.3,0.7-1.7l0.3-0.2c-0.5,0-1-0.3-1.4-0.7c-0.6-0.7-0.5-1.9,0.1-2.6l1.6-1.6
						c0.1-0.1,0.4-0.2,0.5,0c0.1,0.1,0.2,0.4,0,0.5l-1.6,1.6c-0.4,0.4-0.4,1-0.1,1.6c0.4,0.5,1.2,0.5,1.6,0.2l1.2-0.9
						c0.2-0.1,0.4-0.1,0.5,0c0.1,0.2,0.1,0.4,0,0.5l-2.3,2.2c-0.3,0.3-0.4,0.7-0.4,1c0,0.4,0.2,0.8,0.4,1.2c0.5,0.5,1.4,0.6,2,0.1
						l1.9-1.4c0.2-0.1,0.4-0.1,0.5,0.1c0.1,0.1,0.1,0.4,0,0.5l-0.8,0.8c-0.9,1-0.9,2.6,0,3.6c0.1,0.2,0.1,0.4,0,0.5
						C166,128.1,165.9,128.1,165.8,128.1z"/>
				</g>
			</g>
			<path class="st12" d="M56.2,160.4l-17.8-7.5c0,0,4.1-11.1,8.2-17.7c4.4-6.9,10.6-9.9,18.8-10.7c11.6-1.3,32.6,0.5,47.6,5.3
				c18.9,6.1,19.7,6.7,19.7,6.7l-9.7,25.9l-6.4-1.7l7.8,50.1l-76.3,2.8C48,213.6,54,169.3,56.2,160.4z"/>
			<g>
				<g>
					<polygon class="st8" points="122.7,193.6 86.9,193.6 103.2,147.8 139,147.8 					"/>
				</g>
			</g>
			<g>
				<path class="st20" d="M51.3,160.4c8.8,0.6,29.7,0.9,31.8,1c3.8,0.2,21.7,1.5,21.8,4.4c0,1.5-1.5,1.7-2.7,1.7
					c1,0.6,2.6,1.4,2.2,2.8c-0.4,1.8-3.1,1.5-3.2,1.6c1.2,0.5,2.3,1,2.1,2.2c-0.3,1.6-1.7,2.4-3.1,2.2c0.1,0.2,2.2,0.7,1.9,2.5
					c-0.2,1.4-2.1,1.6-4,1.4c-3.4-0.2-42.9-0.3-50.1-1.3C45,178.6,47.5,163.1,51.3,160.4z"/>
				<path class="st8" d="M59.4,160.9h-0.3c-3.9-0.1-7.9-0.3-11.2-0.5c-0.2,0-0.4-0.2-0.4-0.4s0.2-0.4,0.4-0.4
					c3.2,0.2,7.1,0.3,10.9,0.5l3.7-8.6c0.1-0.2,0.3-0.3,0.5-0.2c0.2,0.1,0.3,0.3,0.2,0.5L59.4,160.9z"/>
				<g>
					<path class="st8" d="M102.2,167.7h-0.1c-0.7-0.3-1.5-0.5-2.2-0.7c-1.4-0.4-2.7-0.5-4.2-0.6c-0.2,0-0.4-0.2-0.4-0.4
						c0-0.2,0.2-0.4,0.4-0.4c1.5,0,2.9,0.2,4.3,0.6c0.7,0.2,1.6,0.5,2.3,0.8c0.2,0.1,0.3,0.3,0.2,0.5
						C102.4,167.6,102.3,167.7,102.2,167.7z"/>
					<path class="st8" d="M101.1,172.2H101c-0.1,0-0.3-0.1-0.5-0.1c-1.4-0.4-2.7-0.5-4.2-0.6c-0.2,0-0.4-0.2-0.4-0.4
						c0-0.2,0.2-0.4,0.4-0.4c1.5,0,2.9,0.2,4.3,0.6c0.2,0,0.3,0.1,0.5,0.1c0.2,0.1,0.3,0.3,0.2,0.5
						C101.5,172.1,101.3,172.2,101.1,172.2z"/>
					<path class="st8" d="M100,176.6C99.9,176.6,99.9,176.6,100,176.6c-0.9-0.2-1.9-0.3-2.8-0.3c-0.2,0-0.4-0.2-0.4-0.4
						s0.2-0.4,0.4-0.4c0.9,0,1.9,0.1,2.8,0.3c0.2,0,0.3,0.2,0.3,0.4C100.3,176.5,100.1,176.6,100,176.6z"/>
				</g>
			</g>
			<g>
				<path class="st20" d="M96.7,121.7c-2.4,1.7-9.1-2.9-9.1-2.9l-3.9-8.1c0-4.1,3.4-7.4,7.4-7.4c4.1,0,7.4,3.4,7.4,7.4
					C98.7,110.8,99.3,120,96.7,121.7z"/>
				<path class="st20" d="M89,131L89,131c2.8,0,5.1-2.3,5.1-5.1v-18.1H83.8v18C83.8,128.7,86.1,131,89,131z"/>
				<path class="st20" d="M97.9,112.7c0,0,2.1,2.2,2,2.7c-0.1,0.7-2.4,1.2-2.4,1.2S97.9,112.8,97.9,112.7z"/>
				<g>
					<path class="st13" d="M91.2,112.4c0,0,1.3-0.6,2.7-0.6c0.3,0-0.3,2.5-0.6,2.4C91.9,113.5,91.2,112.4,91.2,112.4z"/>
					<g>
						<path class="st8" d="M93.9,111.7c0.9-0.9,2.6-0.9,3.6,0c0.9,0.9,0.9,2.6,0,3.6c-0.9,0.9-2.6,0.9-3.6,0
							C93,114.3,93,112.7,93.9,111.7z"/>
					</g>
				</g>
				<path class="st8" d="M88.5,112.2c0,0,1.5,3.8,5.5,4c4,0.2,4.7,0.1,4.7,0.1l0.5,3.8c0.2,1.7-1.2,3.1-2.8,3l-2.8-0.1
					c-2.9-0.1-5.2-2.3-5.6-5.2l-0.3-3.1l-3.8-1.4c0,0-6.2-2.9-3.8-7.2c1.5-2.7,4-1.7,4-1.7l9.5-7.3c1.9-1.5,4.5-1.3,6.2,0.4l0,0
					c1.6,1.6,1.4,4.2-0.3,5.6l-1.3,0.9l1.3-0.2c1-0.2,2,0.4,2.2,1.5l0,0c0.4,2-1.2,3.9-3.2,3.9c-0.9,0-2-0.2-3-0.4
					C91.6,107.6,87.8,108.8,88.5,112.2z"/>
				<path class="st20" d="M88.3,113.6c0.4,1.3-0.1,2.6-1.2,3c-1,0.4-2.4-0.3-2.8-1.7c-0.4-1.3,0.1-2.6,1.2-3
					C86.7,111.6,87.9,112.3,88.3,113.6z"/>
				<path class="st20" d="M95.5,118.4c-0.3,0-0.5-0.1-0.7-0.2c-0.4-0.3-0.7-0.8-0.6-1.4c0-0.2,0.2-0.4,0.4-0.3
					c0.2,0,0.4,0.2,0.3,0.4c0,0.2,0.1,0.5,0.3,0.6c0.2,0.1,0.5,0.1,0.7,0c0.2-0.1,0.4-0.1,0.5,0.1c0.1,0.2,0.1,0.4-0.1,0.5
					C96.1,118.3,95.8,118.4,95.5,118.4z"/>
				<path class="st8" d="M87.2,116c-0.1,0-0.2,0-0.2-0.1l-1-0.8c-0.2-0.1-0.2-0.4-0.1-0.5c0.1-0.2,0.4-0.2,0.5-0.1l1,0.8
					c0.2,0.1,0.2,0.4,0.1,0.5C87.4,115.8,87.3,116,87.2,116z"/>
			</g>
		</g>
		
			<radialGradient id="SVGID_4_" cx="284.121" cy="195.3316" r="0.966" gradientTransform="matrix(0 36.94 128.0037 0 -24889.5938 -10142.6436)" gradientUnits="userSpaceOnUse">
			<stop  offset="0" style="stop-color:#00366A"/>
			<stop  offset="1" style="stop-color:#005EB8;stop-opacity:0"/>
		</radialGradient>
		<rect x="-10" y="353" class="st22" width="247.2" height="71.3"/>
		
			<radialGradient id="SVGID_5_" cx="283.6338" cy="197.4205" r="0.966" gradientTransform="matrix(0 36.94 178.6341 0 -34842.7227 -10142.6436)" gradientUnits="userSpaceOnUse">
			<stop  offset="0" style="stop-color:#00366A"/>
			<stop  offset="1" style="stop-color:#005EB8;stop-opacity:0"/>
		</radialGradient>
		<rect x="250.8" y="335" class="st23" width="345" height="71.3"/>
		<g class="st0">
			<g>
				<rect x="306.7" y="293.2" class="st14" width="56.6" height="41.9"/>
				<path class="st24" d="M349.3,333.1c0.2,0,0.4-0.2,0.4-0.4v-37.1c0-0.2-0.2-0.4-0.4-0.4c-0.2,0-0.4,0.2-0.4,0.4v37.1
					C349,333,349.1,333.1,349.3,333.1z"/>
				<path class="st24" d="M324,333.1c0.2,0,0.4-0.2,0.4-0.4V308c0-0.2-0.2-0.4-0.4-0.4c-0.2,0-0.4,0.2-0.4,0.4v24.7
					C323.7,333,323.9,333.1,324,333.1z"/>
				<g>
					<path class="st25" d="M318.7,306.9c0.1,0,0.2,0,0.2-0.1l2.7-2.7l2.2,2.2c0.2,0.2,0.4,0.2,0.5,0l2.3-2.3l2.6,2.6
						c0.1,0.1,0.2,0.2,0.4,0.1c0.2-0.1,0.2-0.2,0.2-0.3v-12.7c0-0.2-0.2-0.4-0.4-0.4c-0.2,0-0.4,0.2-0.4,0.4v11.8l-2.3-2.3
						c-0.2-0.2-0.4-0.2-0.5,0l-2.3,2.3l-2.2-2.2c-0.2-0.2-0.4-0.2-0.5,0l-2.3,2.3v-11.9c0-0.2-0.2-0.4-0.4-0.4
						c-0.2,0-0.4,0.2-0.4,0.4v12.8c0,0.2,0.1,0.2,0.2,0.3C318.6,306.9,318.7,306.9,318.7,306.9z"/>
				</g>
			</g>
			<g>
				<rect x="306.5" y="293.2" class="st3" width="56.6" height="41.9"/>
				<path class="st14" d="M349.1,333c0.2,0,0.2-0.1,0.2-0.2v-37.1c0-0.2-0.1-0.2-0.2-0.2c-0.2,0-0.2,0.1-0.2,0.2v37.1
					C348.9,332.9,349,333,349.1,333z"/>
				<path class="st14" d="M323.9,333c0.2,0,0.2-0.1,0.2-0.2V308c0-0.2-0.1-0.2-0.2-0.2c-0.2,0-0.2,0.1-0.2,0.2v24.7
					C323.6,332.9,323.7,333,323.9,333z"/>
				<path class="st10" d="M328.8,293.3h-5.4h-5.3l0.1,13h0.6l1-1.7h0.6v1.7h0.6l1-1.7h0.8v1.7h0.6l0,0l0,0c0.1,0,0.1,0,0.2,0
					l0.8-1.7h0.6v1.7h0.9l0.9-1.7h0.6v1.7h0.9l0.7-1.7C329,304.6,328.8,296.2,328.8,293.3z"/>
			</g>
		</g>
	</g>
</g>
</svg>
